<svg fill="none" height="129" viewBox="0 0 128 129" width="128" xmlns="http://www.w3.org/2000/svg" xmlns:xlink="http://www.w3.org/1999/xlink"><linearGradient id="a" gradientUnits="userSpaceOnUse" x1="64.032" x2="64.032" y1="115.7" y2="13.3"><stop offset="0" stop-color="#b5afbf"/><stop offset="1" stop-color="#dbd1d6"/></linearGradient><linearGradient id="b" gradientUnits="userSpaceOnUse" x1="36.3841" x2="36.3841" y1="102.388" y2="88.052"><stop offset="0" stop-color="#a99ea7"/><stop offset=".6" stop-color="#c8b8c1"/></linearGradient><path d="m94.752 13.3h-61.44c-7.352 0-13.312 5.96-13.312 13.312v75.776c0 7.352 5.96 13.312 13.312 13.312h61.44c7.352 0 13.312-5.96 13.312-13.312v-75.776c0-7.352-5.96-13.312-13.312-13.312z" fill="url(#a)"/><path d="m94.7521 14.324h-61.44c-6.7865 0-12.288 5.5016-12.288 12.288v71.6801c0 6.7869 5.5015 12.2879 12.288 12.2879h61.44c6.7869 0 12.2879-5.501 12.2879-12.2879v-71.6801c0-6.7864-5.501-12.288-12.2879-12.288z" fill="#fef7f9"/><path d="m94.7521 14.324h-61.44c-3.259 0-6.3845 1.2947-8.6889 3.5991-2.3045 2.3045-3.5991 5.43-3.5991 8.6889v1.024c0-3.2589 1.2946-6.3844 3.5991-8.6889 2.3044-2.3044 5.4299-3.5991 8.6889-3.5991h61.44c3.259 0 6.3849 1.2947 8.6889 3.5991 2.304 2.3045 3.599 5.43 3.599 8.6889v-1.024c0-3.2589-1.295-6.3844-3.599-8.6889-2.304-2.3044-5.4299-3.5991-8.6889-3.5991z" fill="#fff"/><path d="m94.7521 22.516h-61.44c-2.2622 0-4.096 1.8338-4.096 4.096v51.2c0 2.2622 1.8338 4.096 4.096 4.096h61.44c2.2621 0 4.096-1.8338 4.096-4.096v-51.2c0-2.2622-1.8339-4.096-4.096-4.096z" fill="#7e628f"/><path d="m94.7521 22.516h-61.44c-1.0864 0-2.1282.4315-2.8963 1.1997-.7682.7681-1.1997 1.81-1.1997 2.8963v1.024c0-1.0863.4315-2.1282 1.1997-2.8963.7681-.7682 1.8099-1.1997 2.8963-1.1997h61.44c1.0863 0 2.1281.4315 2.8963 1.1997.7681.7681 1.1997 1.81 1.1997 2.8963v-1.024c0-1.0863-.4316-2.1282-1.1997-2.8963-.7682-.7682-1.81-1.1997-2.8963-1.1997z" fill="#675077"/><path d="m94.7521 88.052h-18.432c-2.2622 0-4.096 1.8338-4.096 4.096v6.144c0 2.262 1.8338 4.096 4.096 4.096h18.432c2.2621 0 4.096-1.834 4.096-4.096v-6.144c0-2.2622-1.8339-4.096-4.096-4.096z" fill="#d84b9d"/><path d="m94.7521 88.052h-18.432c-2.2622 0-4.096 1.8338-4.096 4.096v4.096c0 2.2622 1.8338 4.096 4.096 4.096h18.432c2.2621 0 4.096-1.8338 4.096-4.096v-4.096c0-2.2622-1.8339-4.096-4.096-4.096z" fill="#f159b0"/><path d="m94.7521 99.3159h-18.432c-1.0864 0-2.1282-.4315-2.8963-1.1997-.7682-.7681-1.1997-1.81-1.1997-2.8963v1.024c0 1.0863.4315 2.1282 1.1997 2.8963.7681.7682 1.8099 1.1998 2.8963 1.1998h18.432c1.0863 0 2.1281-.4316 2.8963-1.1998.7681-.7681 1.1997-1.81 1.1997-2.8963v-1.024c0 1.0863-.4316 2.1282-1.1997 2.8963-.7682.7682-1.81 1.1997-2.8963 1.1997z" fill="#fc7acb"/><path d="m36.3841 102.388c3.9587 0 7.168-3.2092 7.168-7.168s-3.2093-7.168-7.168-7.168c-3.9588 0-7.168 3.2092-7.168 7.168s3.2092 7.168 7.168 7.168z" fill="url(#b)"/><path d="m36.3839 100.34c3.3932 0 6.144-2.7508 6.144-6.144s-2.7508-6.144-6.144-6.144c-3.3933 0-6.144 2.7508-6.144 6.144s2.7507 6.144 6.144 6.144z" fill="#dec7d4"/><path d="m36.3839 89.076c1.5445-.0054 3.0344.5712 4.173 1.6149s1.8423 2.4779 1.971 4.0171v-.512c0-1.6295-.6473-3.1922-1.7996-4.3445-1.1522-1.1522-2.7149-1.7995-4.3444-1.7995s-3.1923.6473-4.3445 1.7995c-1.1522 1.1523-1.7995 2.715-1.7995 4.3445v.512c.1287-1.5392.8324-2.9734 1.9709-4.0171 1.1386-1.0437 2.6285-1.6203 4.1731-1.6149z" fill="#f9edf4"/><path d="m54.816 100.34c3.3932 0 6.144-2.7508 6.144-6.144s-2.7508-6.144-6.144-6.144-6.144 2.7508-6.144 6.144 2.7508 6.144 6.144 6.144z" fill="#dec7d4"/><path d="m54.816 89.076c1.5445-.0054 3.0344.5712 4.173 1.6149s1.8423 2.4779 1.971 4.0171v-.512c0-1.6295-.6473-3.1922-1.7995-4.3445-1.1523-1.1522-2.715-1.7995-4.3445-1.7995s-3.1922.6473-4.3445 1.7995c-1.1522 1.1523-1.7995 2.715-1.7995 4.3445v.512c.1287-1.5392.8324-2.9734 1.971-4.0171s2.6285-1.6203 4.173-1.6149z" fill="#f9edf4"/><path d="m47.6478 75.5592c-2.3898 0-4.726-.7086-6.713-2.0364-1.9871-1.3277-3.5358-3.2148-4.4504-5.4227-.9145-2.208-1.1538-4.6375-.6876-6.9814.4663-2.3439 1.6171-4.4969 3.3069-6.1868 1.6899-1.6899 3.8429-2.8407 6.1868-3.3069s4.7735-.2269 6.9814.6876c2.2079.9146 4.095 2.4633 5.4227 4.4504 1.3278 1.987 2.0364 4.3232 2.0364 6.713 0 3.2047-1.273 6.2781-3.539 8.5441-2.2661 2.2661-5.3395 3.5391-8.5442 3.5391zm0-20.48c-1.6607 0-3.2841.4925-4.665 1.4151-1.3808.9227-2.4571 2.2341-3.0926 3.7684s-.8018 3.2226-.4778 4.8515c.324 1.6288 1.1237 3.1249 2.298 4.2993 1.1743 1.1743 2.6705 1.974 4.2993 2.298s3.3171.1577 4.8515-.4778c1.5343-.6356 2.8457-1.7118 3.7683-3.0927.9227-1.3808 1.4151-3.0042 1.4151-4.665 0-1.1027-.2172-2.1945-.6391-3.2133-.422-1.0187-1.0405-1.9444-1.8202-2.7241s-1.7054-1.3982-2.7241-1.8202c-1.0188-.422-2.1107-.6392-3.2134-.6392z" fill="#9072a0"/><path d="m57.888 65.5239c-.5432 0-1.0641-.2157-1.4482-.5998s-.5998-.905-.5998-1.4482c0-2.1726-.8631-4.2563-2.3994-5.7926s-3.62-2.3994-5.7926-2.3994c-.5432 0-1.0641-.2157-1.4482-.5998s-.5998-.905-.5998-1.4482c0-.5431.2157-1.0641.5998-1.4481.3841-.3841.905-.5999 1.4482-.5999 3.259 0 6.3845 1.2946 8.6889 3.5991 2.3045 2.3044 3.5991 5.4299 3.5991 8.6889 0 .5432-.2158 1.0641-.5999 1.4482-.384.3841-.905.5998-1.4481.5998z" fill="#fe5bb7"/><path d="m80.416 75.5592c-2.3899 0-4.726-.7086-6.7131-2.0364-1.9871-1.3277-3.5358-3.2148-4.4504-5.4227-.9145-2.208-1.1538-4.6375-.6876-6.9814.4663-2.3439 1.6171-4.4969 3.307-6.1868 1.6898-1.6899 3.8428-2.8407 6.1868-3.3069 2.3439-.4662 4.7734-.2269 6.9813.6876 2.2079.9146 4.0951 2.4633 5.4228 4.4504 1.3277 1.987 2.0364 4.3232 2.0364 6.713 0 3.2047-1.2731 6.2781-3.5391 8.5441-2.2661 2.2661-5.3395 3.5391-8.5441 3.5391zm0-20.48c-1.6608 0-3.2842.4925-4.665 1.4151-1.3809.9227-2.4571 2.2341-3.0927 3.7684-.6355 1.5343-.8018 3.2226-.4778 4.8515.324 1.6288 1.1237 3.1249 2.298 4.2993 1.1743 1.1743 2.6705 1.974 4.2993 2.298 1.6289.324 3.3172.1577 4.8515-.4778 1.5343-.6356 2.8457-1.7118 3.7684-3.0927.9226-1.3808 1.4151-3.0042 1.4151-4.665 0-1.1027-.2172-2.1945-.6392-3.2133-.422-1.0187-1.0405-1.9444-1.8202-2.7241s-1.7054-1.3982-2.7241-1.8202c-1.0188-.422-2.1106-.6392-3.2133-.6392z" fill="#9072a0"/><path d="m80.416 75.7639c-3.259 0-6.3845-1.2946-8.6889-3.599-2.3045-2.3045-3.5991-5.43-3.5991-8.689 0-.5431.2158-1.0641.5998-1.4481.3841-.3841.905-.5999 1.4482-.5999s1.0641.2158 1.4481.5999c.3841.384.5999.905.5999 1.4481 0 1.6203.4804 3.2041 1.3806 4.5513.9001 1.3471 2.1796 2.3971 3.6765 3.0172 1.4968.62 3.144.7822 4.7331.4661s3.0487-1.0963 4.1944-2.242c1.1457-1.1456 1.9259-2.6053 2.242-4.1944s.1538-3.2362-.4662-4.7331-1.67-2.7763-3.0172-3.6765c-1.3471-.9001-2.931-1.3806-4.5512-1.3806-.5432 0-1.0641-.2157-1.4482-.5998-.384-.3841-.5998-.905-.5998-1.4482 0-.5431.2158-1.0641.5998-1.4481.3841-.3841.905-.5999 1.4482-.5999 3.259 0 6.3845 1.2947 8.6889 3.5991 2.3045 2.3044 3.5991 5.4299 3.5991 8.6889s-1.2946 6.3845-3.5991 8.689c-2.3044 2.3044-5.4299 3.599-8.6889 3.599z" fill="#5bd3e8"/><path d="m91.6801 31.22-11.264 11.264-4.096-5.12-7.9872 9.0112-11.264-21.7088-10.4448 14.9504-4.096-4.096-8.192 10.9568-5.12-8.192v3.6864l5.12 7.9872 8.192-11.5712 4.096 4.096 10.24-13.824 11.0592 21.2992 8.3968-9.4208 4.096 5.12 11.264-11.264 7.168 8.704v-3.072l-7.168-8.6016z" fill="#ffae43"/></svg>